# AST/ASF file generated using VICON BodyLanguage
# -----------------------------------------------
:version 1.10
:name VICON
:units
  mass 1.0
  length 0.45
  angle deg
:documentation
   .ast/.asf automatically generated from VICON data using
   VICON BodyBuilder and BodyLanguage model FoxedUp or BRILLIANT.MOD
:root
   order TX TY TZ RX RY RZ
   axis XYZ
   position 0 0 0  
   orientation 0 0 0 
:bonedata
  begin
     id 1 
     name lhipjoint
     direction 0.63403 -0.759788 0.143974 
     length 2.51904 
     axis 0 0 0  XYZ
  end
  begin
     id 2 
     name lfemur
     direction 0.34202 -0.939693 0  
     length 7.42313  
     axis 0 0 20  XYZ
    dof rx ry rz
    limits (-160.0 20.0)
           (-70.0 70.0)
           (-60.0 70.0)
  end
  begin
     id 3 
     name ltibia
     direction 0.34202 -0.939693 0   
     length 8.10141   
     axis 0 0 20   XYZ
    dof rx
    limits (-10.0 170.0)
  end
  begin
     id 4 
     name lfoot
     direction 0.0927455 -0.254816 0.962532   
     length 2.14078   
     axis -90 7.62852e-016 20   XYZ
    dof rx rz
    limits (-45.0 90.0)
           (-70.0 20.0)
  end
  begin
     id 5 
     name ltoes
     direction 1.53556e-011 -4.21949e-011 1   
     length 1.07182   
     axis -90 7.62852e-016 20   XYZ
    dof rx
    limits (-90.0 20.0)
  end
  begin
     id 6 
     name rhipjoint
     direction -0.659892 -0.738223 0.139888   
     length 2.59263  
     axis 0 0 0  XYZ 
  end
  begin
     id 7 
     name rfemur
     direction -0.34202 -0.939693 0   
     length 7.58575   
     axis 0 0 -20   XYZ
    dof rx ry rz
    limits (-160.0 20.0)
           (-70.0 70.0)
           (-70.0 60.0)
  end
  begin
     id 8 
     name rtibia
     direction -0.34202 -0.939693 0   
     length 8.19358   
     axis 0 0 -20   XYZ
    dof rx
    limits (-10.0 170.0)
 end
 begin
     id 9 
     name rfoot
     direction -0.0856543 -0.235333 0.968133   
     length 2.13415  
     axis -90 -7.62852e-016 -20   XYZ
    dof rx rz
    limits (-45.0 90.0)
           (-20.0 70.0)
  end
  begin
     id 10 
     name rtoes
     direction -1.53551e-011 -4.21811e-011 1   
     length 1.07055   
     axis -90 -7.62852e-016 -20   XYZ
    dof rx
    limits (-90.0 20.0)
  end
  begin
     id 11 
     name lowerback
     direction 0.025219 0.998394 -0.0507326   
     length 1.91844   
     axis 0 0 0   XYZ
    dof rx ry rz
    limits (-20.0 45.0)
           (-30.0 30.0)
           (-30.0 30.0)
  end
  begin
     id 12 
     name upperback
     direction 0.0213103 0.99967 -0.0143101   
     length 1.92246   
     axis 0 0 0   XYZ
    dof rx ry rz
    limits (-20.0 45.0)
           (-30.0 30.0)
           (-30.0 30.0)
  end
  begin
     id 13 
     name thorax
     direction 0.00920974 0.99991 0.00971518   
     length 1.92239   
     axis 0 0 0   XYZ
    dof rx ry rz
    limits (-20.0 45.0)
           (-30.0 30.0)
           (-30.0 30.0)
  end
  begin
     id 14 
     name lowerneck
     direction 0.0598257 0.997249 0.0437612   
     length 3.13679   
     axis 0 0 0   XYZ
    dof rx ry rz
    limits (-20.0 45.0)
           (-30.0 30.0)
           (-30.0 30.0)
  end
  begin
     id 15 
     name upperneck
     direction -0.035342 0.999338 0.00863891   
     length 3.16283   
     axis 0 0 0   XYZ
    dof rx ry rz
    limits (-20.0 45.0)
           (-30.0 30.0)
           (-30.0 30.0)
  end
  begin
     id 16
     name head
     direction 0.37144 0.811566 0.450991  
     length 1.2838  
     axis 0 0 0   XYZ
    dof rx ry rz
    limits (-20.0 45.0)
           (-30.0 30.0)
           (-30.0 30.0)
  end
  begin
     id 17 
     name lclavicle
     direction 0.961094 0.274654 -0.0293862  
     length 3.63466  
     axis 0 0 0   XYZ
    dof ry rz
    limits (-20.0 10.0)
           (0.0 20.0)
  end
  begin
     id 18 
     name lhumerus
     direction 1 -4.48963e-011 1.10303e-027   
     length 5.12842   
     axis 180 -30 -90   XYZ
    dof rx ry rz
    limits (-60.0 90.0)
           (-90.0 90.0)
           (-90.0 90.0)
  end
  begin
     id 19
     name lradius
     direction 1 -4.48968e-011 4.13199e-027   
     length 3.47396   
     axis 180 -30 -90   XYZ
    dof rx
    limits (-10.0 170.0)
  end
  begin
     id 20
     name lwrist
     direction 1 -4.48948e-011 9.12708e-027   
     length 1.73698   
     axis -6.84618e-015 90 90   XYZ
    dof ry
    limits (-180.0 0.0)
 end
  begin
     id 21 
     name lhand
     direction 1 -4.49057e-011 1.82749e-026   
     length 0.728607   
     axis -1.16502e-014 90 90   XYZ
    dof rx rz
    limits (-90.0 90.0)
           (-45.0 45.0)
  end
  begin
     id 22 
     name lfingers
     direction 1 -4.48912e-011 3.64949e-026   
     length 0.587422   
     axis -2.33008e-014 90 90   XYZ
    dof rx
    limits (0.0 90.0)
  end
  begin
     id 23
     name lthumb
     direction 0.707107 -6.34995e-011 0.707107   
     length 0.843424   
     axis -90 45 5.69224e-014   XYZ
    dof rx rz
    limits (-45.0 45.0)
           (-45.0 45.0)
  end
  begin
     id 24 
     name rclavicle
     direction -0.90514 0.421881 -0.0523369   
     length 3.57139  
     axis 0 0 0   XYZ 
    dof ry rz
    limits (-10.0 20.0)
           (-20.0 0.0)
  end
  begin
     id 25 
     name rhumerus
     direction -1 -4.48954e-011 -1.76662e-027  
     length 5.48477   
     axis 180 30 90   XYZ
    dof rx ry rz
    limits (-90.0 60.0)
           (-90.0 90.0)
           (-90.0 90.0)
  end
  begin
     id 26 
     name rradius
     direction -1 -4.48982e-011 1.26841e-027   
     length 3.47856   
     axis 180 30 90   XYZ
    dof rx
    limits (-10.0 170.0)
  end
  begin
     id 27 
     name rwrist
     direction -1 -4.49037e-011 9.13554e-027   
     length 1.73928   
     axis -6.84618e-015 -90 -90   XYZ
    dof ry
    limits (-180.0 0.0)
  end
  begin
     id 28
     name rhand
     direction -1 -4.48871e-011 1.82397e-026   
     length 0.709974   
     axis -1.16502e-014 -90 -90   XYZ
    dof rx rz
    limits (-90.0 90.0)
           (-45.0 45.0)
  end
  begin
     id 29
     name rfingers
     direction -1 -4.48994e-011 3.65258e-026   
     length 0.572399   
     axis -2.33008e-014 -90 -90   XYZ
    dof rx
    limits (0.0 90.0)
  end
  begin
     id 30
     name rthumb
     direction -0.707107 -6.34861e-011 0.707107   
     length 0.821855   
     axis -90 -45 -5.69224e-014   XYZ
    dof rx rz
    limits (-45.0 45.0)
           (-45.0 45.0)
  end
:hierarchy
  begin
    root lhipjoint rhipjoint lowerback
    lhipjoint lfemur
    lfemur ltibia
    ltibia lfoot
    lfoot ltoes
    rhipjoint rfemur
    rfemur rtibia
    rtibia rfoot
    rfoot rtoes
    lowerback upperback
    upperback thorax
    thorax lowerneck lclavicle rclavicle
    lowerneck upperneck
    upperneck head
    lclavicle lhumerus
    lhumerus lradius
    lradius lwrist
    lwrist lhand lthumb
    lhand lfingers
    rclavicle rhumerus
    rhumerus rradius
    rradius rwrist
    rwrist rhand rthumb
    rhand rfingers
  end

#!OML:ASF F:\VICON\USERDATA\INSTALL\Justin1\Justin1.ASF
:FULLY-SPECIFIED
:DEGREES
3839
root -3.0401 17.9747 -7.09698 6.82811 48.8224 -1.02621
lowerback 8.65972 -1.88314 -0.393376
upperback -0.0536127 -2.38856 2.80113
thorax -4.77748 -1.13163 3.44059
lowerneck -16.9687 -2.69979 -3.34541
upperneck 27.3746 -1.32915 -4.25809
head 11.8006 -1.41186 -1.19776
rclavicle -1.2921e-015 -1.66979e-014
rhumerus -31.7566 -15.8667 -76.1242
rradius 29.6901
rwrist -3.60511
rhand -29.5183 15.7287
rfingers 7.12502
rthumb -2.85227 -14.232
lclavicle -1.2921e-015 -1.66979e-014
lhumerus -34.0944 16.096 81.254
lradius 36.601
lwrist -8.78466
lhand -11.0295 30.0263
lfingers 7.12502
lthumb 14.9921 59.4636
rfemur -36.5779 7.77068 22.7297
rtibia 26.4553
rfoot -5.25617 -10.4285
rtoes 28.1102
lfemur -6.03028 -2.308 -25.881
ltibia 28.1994
lfoot -18.3391 -6.43688
ltoes 9.00564
3840
root -2.93968 17.9781 -7.01159 6.688 48.8063 -1.23947
lowerback 8.30104 -1.81217 -0.449814
upperback 0.161177 -2.29309 3.059
thorax -4.34492 -1.08728 3.70795
lowerneck -17.1283 -2.73667 -3.4234
upperneck 27.0987 -1.30767 -4.45298
head 11.7272 -1.43374 -1.25113
rclavicle 6.16232e-015 -3.02153e-014
rhumerus -31.2626 -15.8542 -75.8676
rradius 29.3954
rwrist -3.9825
rhand -29.6651 15.7909
rfingers 7.12502
rthumb -2.99402 -14.1678
lclavicle 6.16232e-015 -3.02153e-014
lhumerus -33.992 16.4205 81.62
lradius 36.4526
lwrist -8.78698
lhand -10.2554 29.3463
lfingers 7.12502
lthumb 15.7377 58.7264
rfemur -36.552 8.19705 22.7325
rtibia 27.0915
rfoot -5.41078 -10.0865
rtoes 28.0918
lfemur -5.9432 -2.48901 -25.6611
ltibia 28.8995
lfoot -17.72 -7.04181
ltoes 10.9566
3841
root -2.83737 17.9782 -6.92597 6.79375 48.8543 -1.25655
lowerback 8.19896 -1.82608 -0.238598
upperback 0.0813901 -2.2927 3.03436
thorax -4.38015 -1.09078 3.56091
lowerneck -17.1434 -2.72449 -3.40826
upperneck 27.0318 -1.2983 -4.45411
head 11.704 -1.42762 -1.25157
rclavicle 2.24627e-014 -2.38542e-015
rhumerus -31.3156 -16.0659 -75.7795
rradius 29.1294
rwrist -3.90064
rhand -29.7961 15.9167
rfingers 7.12502
rthumb -3.12056 -14.0402
lclavicle 2.24627e-014 -2.38542e-015
lhumerus -34.305 16.65 81.5311
lradius 36.2884
lwrist -8.79895
lhand -11.1634 30.7415
lfingers 7.12502
lthumb 14.8631 60.1884
rfemur -36.5909 8.2872 22.7141
rtibia 27.6951
rfoot -5.41958 -9.57702
rtoes 29.6368
lfemur -6.05624 -2.41098 -25.5744
ltibia 29.6818
lfoot -17.1618 -7.62136
ltoes 11.3583
3842
root -2.73653 17.9845 -6.83791 6.8274 48.9389 -1.36266
lowerback 7.9902 -1.77513 -0.0869503
upperback 0.0685714 -2.20877 3.12475
thorax -4.28374 -1.05231 3.55169
lowerneck -17.2136 -2.76825 -3.53854
upperneck 26.9938 -1.31902 -4.45186
head 11.706 -1.44989 -1.23239
rclavicle 1.5376e-013 -6.36111e-015
rhumerus -31.4006 -16.5614 -75.452
rradius 28.97
rwrist -3.48997
rhand -29.7923 15.8712
rfingers 7.12502
rthumb -3.11683 -14.0858
lclavicle 1.5376e-013 -6.36111e-015
lhumerus -34.4512 16.9056 81.6823
lradius 36.0007
lwrist -8.94929
lhand -12.0551 30.3342
lfingers 7.12502
lthumb 14.0039 59.8425
rfemur -36.577 8.48889 22.7239
rtibia 28.2792
rfoot -5.31694 -9.21231
rtoes 30.1044
lfemur -6.24347 -2.1989 -25.389
ltibia 30.5157
lfoot -16.529 -8.38591
ltoes 11.2446
3843
root -2.63382 18.0004 -6.74788 6.71797 49.1051 -1.53507
lowerback 7.88566 -1.77067 0.171935
upperback 0.0650249 -2.17666 3.19026
thorax -4.23791 -1.04106 3.4662
lowerneck -17.3235 -2.78187 -3.52635
upperneck 27.06 -1.30762 -4.53108
head 11.7537 -1.45531 -1.26562
rclavicle 2.88238e-014 1.27222e-014
rhumerus -31.6699 -17.0268 -75.19
rradius 28.9974
rwrist -3.20954
rhand -29.7109 15.8883
rfingers 7.12502
rthumb -3.03831 -14.0698
lclavicle 2.88238e-014 1.27222e-014
lhumerus -34.6873 16.9092 81.8169
lradius 35.8284
lwrist -8.9369
lhand -11.7428 30.4647
lfingers 7.12502
lthumb 14.3049 59.9519
rfemur -36.3909 8.8127 22.717
rtibia 28.7995
rfoot -5.42789 -9.15668
rtoes 30.2002
lfemur -6.39787 -2.12402 -25.1503
ltibia 31.4262
lfoot -15.7106 -9.07872
ltoes 10.7822
3844
root -2.52782 18.0181 -6.65642 6.72647 49.1776 -1.53539
lowerback 7.72433 -1.75494 0.253582
upperback 0.0965255 -2.14861 3.26031
thorax -4.11654 -1.02933 3.48248
lowerneck -17.4056 -2.77615 -3.55641
upperneck 27.0533 -1.26358 -4.6035
head 11.7689 -1.44845 -1.28227
rclavicle -1.72943e-014 -1.66979e-014
rhumerus -31.7681 -17.2352 -74.9784
rradius 28.9744
rwrist -3.33935
rhand -29.3517 15.5852
rfingers 7.12502
rthumb -2.69134 -14.3776
lclavicle -1.72943e-014 -1.66979e-014
lhumerus -34.9807 16.8664 81.977
lradius 35.7698
lwrist -8.81148
lhand -11.3292 30.5321
lfingers 7.12502
lthumb 14.7034 59.9907
rfemur -36.1687 9.16693 22.5748
rtibia 29.2285
rfoot -5.82933 -9.24158
rtoes 32.0745
lfemur -6.61157 -1.9042 -25.0827
ltibia 32.4247
lfoot -15.0678 -9.45123
ltoes 6.80597
3845
root -2.42543 18.028 -6.56403 6.75085 49.1462 -1.5468
lowerback 7.73972 -1.75373 0.382082
upperback -0.00720074 -2.13428 3.22815
thorax -4.23994 -1.02341 3.37871
lowerneck -17.3384 -2.69147 -3.49539
upperneck 27.0506 -1.16892 -4.59051
head 11.754 -1.3971 -1.27203
rclavicle -5.48646e-014 2.14687e-014
rhumerus -31.9476 -17.3198 -74.9497
rradius 28.8619
rwrist -3.59735
rhand -29.003 15.3111
rfingers 7.12502
rthumb -2.3546 -14.6556
lclavicle -5.48646e-014 2.14687e-014
lhumerus -35.5451 16.7521 81.8094
lradius 35.6809
lwrist -8.6275
lhand -11.2808 30.2573
lfingers 7.12502
lthumb 14.75 59.7125
rfemur -35.978 9.40436 22.5551
rtibia 29.6156
rfoot -6.17496 -9.29152
rtoes 33.4848
lfemur -6.90398 -1.60548 -24.9856
ltibia 33.4942
lfoot -14.4457 -10.0349
ltoes 2.50225
